inDegrees=yes
name=ik_S54_A04_T02
DataType=double
version=3
OpenSimVersion=4.3-2021-08-27-4bc7ad9
endheader
time	pelvis_tilt	pelvis_list	pelvis_rotation	pelvis_tx	pelvis_ty	pelvis_tz	hip_flexion_r	hip_adduction_r	hip_rotation_r	knee_angle_r	knee_angle_r_beta	ankle_angle_r	subtalar_angle_r	mtp_angle_r	hip_flexion_l	hip_adduction_l	hip_rotation_l	knee_angle_l	knee_angle_l_beta	ankle_angle_l	subtalar_angle_l	mtp_angle_l	lumbar_extension	lumbar_bending	lumbar_rotation	arm_flex_r	arm_add_r	arm_rot_r	elbow_flex_r	pro_sup_r	wrist_flex_r	wrist_dev_r	arm_flex_l	arm_add_l	arm_rot_l	elbow_flex_l	pro_sup_l	wrist_flex_l	wrist_dev_l
4.679999999999988	23.25078833095566	4.487120056128589	13.51442304000655	0	0.9399999999999999	0	31.98976839524511	-6.735420883485548	-9.909499445895548	74.4087755576697	1.298678125858816	0	0	0	40.86972109742931	-10.04305692454545	-6.463315602008224	80.07248611386069	1.397528522944308	0	0	0	0	0	0	20.38068161985478	-20.38068161985478	3.407745121441141	83.9504107576327	86.59225507560062	0	0	20.38068161985478	-20.38068161985478	3.407745121441141	83.9504107576327	86.5922550753054	0	0
4.699999999999988	23.33788064932611	4.52637015195332	13.48754963070131	0	0.9399999999999999	0	31.92532307780081	-6.777314945687	-9.974563623778216	74.40898059504437	1.298681704436094	0	0	0	40.7984327056436	-10.10615462690575	-6.509267522691453	80.06713523878219	1.397435132556325	0	0	0	0	0	0	20.38182127834286	-20.38182127834286	3.407886688331248	83.95050406228084	86.59211350871803	0	0	20.38182127834286	-20.38182127834286	3.407886688331248	83.95050406228084	86.59211350842281	0	0
4.719999999999987	23.72231475389528	4.619555740694162	13.39549584678412	0	0.9399999999999999	0	31.57466853031234	-6.769439688388677	-10.00582280967194	74.42040594013979	1.298881114326185	1.845633802622906e-35	0	0	40.41770028066835	-10.15778556369493	-6.543325845520329	80.08203429610919	1.397695170162125	1.845633802622906e-35	0	0	0	0	0	20.38369836084746	-20.38369836084746	3.408120050381784	83.95065786770485	86.59188014667996	0	0	20.38369836084746	-20.38369836084746	3.408120050381784	83.95065786770485	86.59188014638477	0	0
4.739999999999987	23.81909986326544	4.644047666206496	13.36422244971574	0	0.9399999999999999	0	31.51664799133874	-6.787261136093598	-10.04727083876607	74.43034963122749	1.299054664475467	0	0	0	40.32153068347688	-10.18555474957338	-6.561982391227517	80.09204837139929	1.39786994874748	0	0	0	0	0	0	20.38287641560118	-20.38287641560118	3.407915529473487	83.95052314765063	86.59208466757623	0	0	20.38287641560118	-20.38287641560118	3.407915529473487	83.95052314765063	86.59208466728101	0	0
4.759999999999986	23.95509508323672	4.684116240390126	13.337542916416	0	0.9399999999999999	0	31.40133693870845	-6.802127725126724	-10.07180385806602	74.44210327321498	1.299259804227249	0	0	0	40.18566195554981	-10.21982395454657	-6.553419971882337	80.08911139007607	1.39781868875332	0	0	0	0	0	0	20.385176542202	-20.385176542202	3.408045321927994	83.95060880088869	86.59195487512693	0	0	20.385176542202	-20.385176542202	3.408045321927994	83.95060880088869	86.5919548748318	0	0
4.779999999999986	24.01706152640268	4.700211576793505	13.32579941582302	0	0.9399999999999999	0	31.33390358136916	-6.82843726460256	-10.08497667511108	74.43186352410657	1.299081086890729	0	0	0	40.12964450016192	-10.25858113124374	-6.544670788321724	80.07023728717523	1.39748927351434	0	0	0	0	0	0	20.39630281776203	-20.39630281776203	3.409318998006793	83.95144834580746	86.59068119911487	0	0	20.39630281776203	-20.39630281776203	3.409318998006793	83.95144834580746	86.59068119881996	0	0
4.799999999999986	24.06418777899769	4.715036240568035	13.30427224371823	0	0.9399999999999999	0	31.29481750898006	-6.860679295177722	-10.11753480269485	74.43832055281618	1.299193783301608	0	0	0	40.07527735332108	-10.29661783914025	-6.552432523979921	80.07245558046422	1.397527990036008	0	0	0	0	0	0	20.4020906990674	-20.4020906990674	3.409978764724287	83.9518832443689	86.59002143243188	0	0	20.4020906990674	-20.4020906990674	3.409978764724287	83.9518832443689	86.59002143213709	0	0
4.819999999999985	24.11057294705089	4.728764165951256	13.28108399420824	0	0.9399999999999999	0	31.27206909583549	-6.88110691534169	-10.09885973522209	74.4456473320282	1.299321659722424	0	0	0	40.02429057154157	-10.28916151576454	-6.536386808566113	80.06895527590382	1.397466898196606	0	0	0	0	0	0	20.41286576114071	-20.41286576114071	3.411206382915187	83.95269244079527	86.58879381430519	0	0	20.41286576114071	-20.41286576114071	3.411206382915187	83.95269244079527	86.58879381401064	0	0
